<?xml version="1.0" standalone="no"?>
<!DOCTYPE svg PUBLIC "-//W3C//DTD SVG 20010904//EN"
        "http://www.w3.org/TR/2001/REC-SVG-20010904/DTD/svg10.dtd">
<svg version="1.0" xmlns="http://www.w3.org/2000/svg"
     width="1037.000000pt" height="816.000000pt" viewBox="0 0 1037.000000 816.000000">

    <g transform="translate(0.000000,816.000000) scale(0.100000,-0.100000)">
        <path d="M5365 7204 c-517 -42 -992 -226 -1497 -581 -337 -237 -742 -602 -970
-876 -472 -567 -964 -1320 -1390 -2127 -310 -587 -444 -791 -787 -1205 -83
-100 -155 -197 -174 -235 l-32 -65 0 -165 c1 -190 11 -230 93 -354 109 -165
222 -249 379 -281 81 -17 343 -35 509 -35 267 0 436 -33 914 -175 1523 -455
2140 -565 3150 -565 1161 1 1939 145 2611 486 443 224 763 531 963 923 145
285 216 513 255 824 46 358 60 926 28 1112 -36 208 -123 501 -184 617 -51 97
-150 189 -234 217 -93 30 -178 41 -321 41 -168 0 -306 -20 -540 -79 -106 -27
-317 -70 -468 -96 -798 -134 -1583 -351 -1790 -495 -71 -49 -762 -410 -1535
-801 -705 -356 -886 -439 -962 -439 -108 0 -258 173 -292 338 -29 141 -4 228
99 330 127 128 451 315 727 420 139 54 1052 295 1329 351 56 11 181 32 279 46
407 58 936 173 1575 340 74 20 210 51 302 70 295 61 848 205 1096 286 203 67
317 124 376 190 52 58 66 97 66 189 0 117 -60 215 -296 480 -196 220 -614 634
-735 728 -283 218 -509 324 -851 397 -86 19 -181 43 -212 55 -31 11 -81 29
-111 40 -66 24 -231 54 -427 76 -137 15 -814 28 -943 18z" fill="#CCCCCC"/>
    </g>
</svg>